<?xml version="1.0" encoding="iso-8859-1"?>
<!-- Uploaded to: SVG Repo, www.svgrepo.com, Generator: SVG Repo Mixer Tools -->
<svg version="1.1" id="Layer_1" xmlns="http://www.w3.org/2000/svg" xmlns:xlink="http://www.w3.org/1999/xlink" 
	 viewBox="0 0 512.005 512.005" xml:space="preserve">
<polygon style="fill:#424242;" points="370.3,303.828 299.897,383.887 392.695,476.684 467.924,401.453 "/>
<polygon style="fill:#707070;" points="335.099,343.858 299.897,383.887 392.695,476.684 430.309,439.068 "/>
<polygon style="fill:#424242;" points="142.175,303.828 212.578,383.887 119.781,476.684 44.551,401.453 "/>
<polygon style="fill:#707070;" points="177.154,343.605 142.175,303.828 44.551,401.453 81.929,438.831 "/>
<path style="fill:#C2C2C2;" d="M112.426,95.338C136.01,39.325,191.411,0,256,0s119.991,39.325,143.574,95.338l12.141,155.819v26.882
	c0,85.999-69.716,155.716-155.716,155.716s-155.716-69.716-155.716-155.716v-26.882L112.426,95.338z"/>
<path style="fill:#EAEAEA;" d="M256,0c-64.589,0-119.99,39.325-143.574,95.338l-12.141,155.819v26.882
	c0,85.999,69.716,155.716,155.716,155.716V0H256z"/>
<path style="fill:#DB6D00;" d="M370.264,90.197H141.736c-47.395,0-85.816,38.421-85.816,85.816s38.421,85.816,85.816,85.816
	c41.043,0,75.337-28.822,83.796-67.325h60.936c8.46,38.503,42.752,67.325,83.797,67.325c47.395,0,85.816-38.421,85.816-85.816
	S417.659,90.197,370.264,90.197z"/>
<path style="fill:#424242;" d="M256,259.386c-52.393,0-95.019,42.625-95.019,95.019s42.625,95.019,95.019,95.019
	s95.019-42.626,95.019-95.019S308.395,259.386,256,259.386z M319.68,354.404c0,5.991-0.849,11.784-2.404,17.285l-29.937-17.284
	l29.938-17.284C318.831,342.62,319.68,348.414,319.68,354.404z M192.321,354.404c0-5.991,0.849-11.784,2.404-17.284l29.937,17.284
	l-29.937,17.284C193.171,366.188,192.321,360.395,192.321,354.404z M301.579,309.996l-29.908,17.268v-34.583
	C283.218,295.614,293.509,301.716,301.579,309.996z M240.33,292.681v34.583l-29.908-17.268
	C218.492,301.716,228.783,295.614,240.33,292.681z M210.422,398.813l29.908-17.267v34.583
	C228.783,413.195,218.492,407.093,210.422,398.813z M271.67,416.128v-34.583l29.908,17.268
	C293.509,407.093,283.218,413.195,271.67,416.128z"/>
<path style="fill:#FFD68B;" d="M409.986,99.948L294.208,215.726c4.937,9.439,11.571,17.848,19.507,24.814l121.073-121.072
	C427.823,111.527,419.424,104.887,409.986,99.948z"/>
<rect x="10.233" y="407.379" transform="matrix(-0.7071 -0.7071 0.7071 -0.7071 -171.0074 807.2927)" style="fill:#048F46;" width="142.917" height="63.368"/>
<rect id="SVGCleanerId_0" x="20.699" y="382.125" transform="matrix(-0.7071 -0.7071 0.7071 -0.7071 -196.2734 746.3188)" style="fill:#3DDB86;" width="71.464" height="63.368"/>
<g>
	
		<rect id="SVGCleanerId_0_1_" x="20.699" y="382.125" transform="matrix(-0.7071 -0.7071 0.7071 -0.7071 -196.2734 746.3188)" style="fill:#3DDB86;" width="71.464" height="63.368"/>
</g>
<rect x="358.855" y="407.384" transform="matrix(0.7071 -0.7071 0.7071 0.7071 -184.4319 432.8774)" style="fill:#048F46;" width="142.917" height="63.368"/>
<rect x="369.314" y="432.651" transform="matrix(0.7071 -0.7071 0.7071 0.7071 -209.6993 422.4117)" style="fill:#3DDB86;" width="71.464" height="63.368"/>
<path style="fill:#FFAC00;" d="M256,90.197H141.736c-47.395,0-85.816,38.421-85.816,85.816s38.421,85.816,85.816,85.816
	c41.043,0,75.337-28.822,83.796-67.325H256V90.197z"/>
<path style="fill:#FFD68B;" d="M230.649,90.197L82.641,238.205c7.75,7.367,16.87,13.298,26.946,17.374L274.97,90.197H230.649z"/>
</svg>